<?xml version="1.0" standalone="no"?>
<!DOCTYPE svg PUBLIC "-//W3C//DTD SVG 20010904//EN"
 "http://www.w3.org/TR/2001/REC-SVG-20010904/DTD/svg10.dtd">
<svg version="1.0" xmlns="http://www.w3.org/2000/svg"
 width="16.000000pt" height="16.000000pt" viewBox="0 0 16.000000 16.000000"
 preserveAspectRatio="xMidYMid meet">
<metadata>
Created by potrace 1.11, written by Peter Selinger 2001-2013
</metadata>
<g transform="translate(0.000000,16.000000) scale(0.003125,-0.003125)"
fill="#000000" stroke="none">
<path d="M1648 3495 c-2 -1 -34 -5 -73 -9 -183 -16 -361 -104 -458 -228 -21
-26 -52 -78 -69 -115 -27 -59 -32 -81 -34 -169 -5 -154 25 -240 117 -331 87
-87 276 -169 505 -218 43 -9 111 -26 149 -37 247 -69 318 -126 317 -254 -1
-176 -132 -277 -377 -291 -179 -10 -343 28 -488 112 -38 22 -89 52 -114 67
-56 32 -88 29 -125 -12 -22 -24 -28 -40 -28 -78 0 -71 37 -115 156 -184 87
-50 288 -116 354 -115 8 0 33 -3 55 -7 48 -9 224 -9 280 -1 303 44 500 196
551 426 11 50 6 176 -9 226 -40 132 -158 233 -352 300 -38 13 -164 49 -279 79
-241 62 -358 112 -403 170 -74 97 -51 270 46 349 84 68 186 97 336 97 167 -1
273 -34 411 -128 125 -86 165 -94 208 -43 14 17 26 38 27 47 0 9 2 26 4 37 20
108 -251 269 -505 301 -46 5 -198 13 -202 9z"/>
<path d="M2805 3470 c-48 -10 -71 -27 -88 -62 -13 -29 -15 -137 -14 -870 l2
-838 31 -30 c55 -56 151 -57 201 -3 13 13 24 25 25 26 1 1 5 160 8 352 l5 350
190 -1 c182 -1 194 -2 245 -26 30 -14 72 -43 93 -64 21 -22 125 -175 230 -339
135 -210 203 -307 227 -323 47 -32 108 -28 154 10 39 32 51 68 37 114 -12 41
-311 509 -358 560 -21 23 -60 54 -87 69 l-48 28 73 21 c99 29 159 60 221 117
161 143 205 415 104 634 -67 143 -199 232 -396 265 -78 14 -797 22 -855 10z
m818 -233 c151 -40 217 -124 222 -281 6 -172 -57 -270 -204 -317 -60 -19 -95
-22 -368 -25 l-303 -4 0 25 c-1 14 -1 113 -1 220 0 107 0 241 1 298 l0 102
298 -1 c232 -1 309 -5 355 -17z"/>
</g>
</svg>
